<svg xmlns="http://www.w3.org/2000/svg" xml:space="preserve" width="244.59854" height="244.59853" viewBox="0 0 244.59854 244.59853"><path d="M390.055 516.277c0-48.63-39.425-88.06-88.058-88.06-48.631 0-88.056 39.43-88.056 88.06 0 48.636 39.425 88.063 88.056 88.063 48.633 0 88.058-39.427 88.058-88.063" style="fill:#fff;fill-opacity:1;fill-rule:nonzero;stroke:none;stroke-width:.254532" transform="matrix(1.33333 0 0 -1.33333 -280.358 810.667)"/><path d="M301.997 442.55c40.717 0 73.727 33.007 73.727 73.722 0 40.725-33.01 73.736-73.727 73.736-40.718 0-73.728-33.01-73.728-73.736 0-40.715 33.01-73.722 73.728-73.722" style="fill:#008940;fill-opacity:1;fill-rule:nonzero;stroke:none;stroke-width:.254532" transform="matrix(1.33333 0 0 -1.33333 -280.358 810.667)"/><path d="M301.997 608c-50.66 0-91.729-41.068-91.729-91.728 0-50.654 41.07-91.72 91.729-91.72 50.654 0 91.72 41.066 91.72 91.72 0 50.66-41.066 91.728-91.72 91.728m0-176.617c-46.885 0-84.894 38.007-84.894 84.89 0 46.887 38.009 84.896 84.894 84.896 46.88 0 84.891-38.01 84.891-84.897 0-46.882-38.012-84.889-84.891-84.889" style="fill:#008940;fill-opacity:1;fill-rule:nonzero;stroke:none;stroke-width:.254532" transform="matrix(1.33333 0 0 -1.33333 -280.358 810.667)"/><path d="m341.744 520.212.016 1.94.063 6.758h-13.151v4.726h13.151v10.976h-79.905v-10.976h12.256v-4.726h-12.256v-10.938h64.458v-4.375h14.684l.659 4.44.025 2.175m-52.003 13.424h23.36v-4.726h-23.36v4.726M343.48 495.594h-6.198v14.045h-14.737v-49.814h14.737v22.264h6.198v13.505M295.615 503.54v6.1h-14.737v-2.152c-.198-6.686-2.362-27.352-21.256-36.91l9.191-9.443s14.547 10.21 18.89 21.702c0 0 8.747-17.96 22.278-22.3l7.336 9.787s-20.233 8.155-21.702 33.217M341.693 561.721c0 7-5.04 12.735-11.454 13.307v.056h-54.704c-6.908 0-12.512-5.986-12.512-13.363 0-7.381 5.604-13.362 12.512-13.362.12 0 .232.015.344.015h52.958c.115 0 .234-.015.346-.015.12 0 .23.015.349.015h.835v.05c6.355.634 11.326 6.341 11.326 13.297m-17.323-2.896h-43.912c-.863.483-1.947 1.565-1.947 2.904a2.423 2.423 0 0 0 2.423 2.426h43.907a2.43 2.43 0 0 0 2.43-2.426c0-1.339-.514-3.077-2.901-2.904" style="fill:#fff;fill-opacity:1;fill-rule:nonzero;stroke:none;stroke-width:.254532" transform="matrix(1.33333 0 0 -1.33333 -280.358 810.667)"/></svg>